# xmcd
#
# Track frame offsets:
#	150
#	22026
#	52752
#	71598
#	91578
#	116040
#	134914
#	158175
#	177869
#	206779
#	226800
#	242367
#	266776
#	291003
#
# Disc length: 4299 seconds
#
# Revision: 0
# Processed by: cddbd v1.5.1PL2 Copyright (c) Steve Scherf et al.
# Submitted via: EasyCDDAExtractor 9.0.0.1
#
DISCID=c310c90e
DTITLE=Various Artist - HouseNight
DYEAR=1900
DGENRE=Club
TTITLE0=Negrocan - Cada Vez
TTITLE1=Olav Basoski - Opium Scumbagz
TTITLE2=Johnny Corporate - Sunday Shoutin
TTITLE3=Full Intention pres. Deep Down - Give Me Your Love
TTITLE4=Afro Medusa - Pasilda
TTITLE5=Georgie Porgie - Life Goes On
TTITLE6=Ministers De La Funk feat. Jocelyn Brown - Believe
TTITLE7=Session 9  - Welcome To The Magic Sessions
TTITLE8=Bini and Martini - Happiness (Original Mix)
TTITLE9=Infinity feat. Duane Harden - Sunshine (When I Dance With You)
TTITLE10=A.T.F.C. pres. OnePhatDeeva feat. Lisa Millett - Bad Habit (acapella)
TTITLE11=Ultra Naté - Desire
TTITLE12=Junior O.pres. Starchild - 2 Much Happened
TTITLE13=Full Intention - Everybody Loves The Sunshine
EXTD=
EXTT0=
EXTT1=
EXTT2=
EXTT3=
EXTT4=
EXTT5=
EXTT6=
EXTT7=
EXTT8=
EXTT9=
EXTT10=
EXTT11=
EXTT12=
EXTT13=
PLAYORDER=
